# xmcd
#
# Track frame offsets:
#	150
#	12634
#	25100
#	25771
#	40987
#	56022
#	75585
#	87414
#	100159
#	111771
#	112379
#	124934
#	139356
#	150199
#	162975
#	178511
#	197230
#
# Disc length: 2817 seconds
#
# Revision: 1
# Processed by: cddbd v1.5.2PL0 Copyright (c) Steve Scherf et al.
# Submitted via: audiograbber 1.83.01
#
DISCID=e30aff11
DTITLE=Hillcrest - Hillcrest Pure Country 73
DYEAR=2014
DGENRE=
TTITLE0=Dark Horse -Bonita Mercer
TTITLE1=Honky Tonk Town -Johnny Bush
TTITLE2=Radio Liner -Vannatta
TTITLE3=Hooked On You -Vannatta
TTITLE4=I´m In Trouble -Shelly Jones Band
TTITLE5=The Man In The Pictures -The Bobkatz
TTITLE6=Toolin´ On My Harley -Jeff Chance &Y Hermann Lammers Meyer
TTITLE7=Could It Be My Eyes Are Lyin´ -Vicki Lee
TTITLE8=Have You Seen This Man -Manson Grant and The Dynamos
TTITLE9=Radio Liner -Clelia Adams
TTITLE10=Honky Tonk Moon -Clelia Adams
TTITLE11=No One LovesHere Anymore -Don Allen
TTITLE12=Bettie Bang -Shelley Minson
TTITLE13=Darlin On Your Way Out, Close The Door -Craeme Clarke
TTITLE14=You Suit Me Well -Steve Robertson and Karen Tobin
TTITLE15=What Can I Do -JeNe West 
TTITLE16=Get Out Of My Way -Gert-Jan van Gastel
EXTD=
EXTT0=
EXTT1=
EXTT2=
EXTT3=
EXTT4=
EXTT5=
EXTT6=
EXTT7=
EXTT8=
EXTT9=
EXTT10=
EXTT11=
EXTT12=
EXTT13=
EXTT14=
EXTT15=
EXTT16=
PLAYORDER=
